<?xml version="1.0" encoding="UTF-8"?>
<svg id="Layer_1" data-name="Layer 1" xmlns="http://www.w3.org/2000/svg" xmlns:v="https://vecta.io/nano" version="1.1" viewBox="0 0 162.6 24.5">
  <defs>
    <style>
      .cls-1 {
        fill: #c72c48;
        stroke-width: 0px;
      }
    </style>
  </defs>
  <path class="cls-1" d="M52.8.4h9.1v23.6h-9.1V.4ZM41.7.7l-18.5,9.9c-.3.1-.6.1-.9,0L3.9.7c-.4-.2-.9-.3-1.3-.3h0C1.2.3,0,1.3,0,2.6v21.4h9.1v-10.2c0-.5.5-.9,1-.8.1,0,.3,0,.4.1l10.4,5.6c1,.5,2.3.6,3.3,0l10.9-5.6c.4-.3,1-.1,1.3.3,0,.1.1.2.1.4v10.2h9.1V2.6c0-1.3-1.2-2.3-2.5-2.2h0c-.5,0-.9.1-1.3.3ZM107.3.4h-9.2v10.8c0,.5-.5.9-1,.8-.1,0-.2,0-.3-.1L72.8.7c-.4-.2-.8-.3-1.2-.3h0c-1.3,0-2.4.9-2.5,2.2v21.4h9.2v-10.7c0-.5.5-.9,1-.8.1,0,.2,0,.3.1l24,11.2c.4.2.8.3,1.2.3,1.3,0,2.4-.9,2.5-2.2V.4ZM114.4,24V.4h4.2v23.6h-4.2ZM143.3,24.5c-11.3,0-19.3-4.7-19.3-12.2,0-7.5,8-12.2,19.3-12.2s19.3,4.7,19.3,12.2-7.9,12.2-19.3,12.2h0ZM143.3,3.1c-8.4,0-14.8,3.2-14.8,9.1s6.5,9.1,14.8,9.1,14.9-3.2,14.9-9.1-6.5-9.1-14.9-9.1Z"/>
</svg>